<?xml version="1.0" standalone="no"?>
<!DOCTYPE svg PUBLIC "-//W3C//DTD SVG 1.1//EN" "http://www.w3.org/Graphics/SVG/1.1/DTD/svg11.dtd" >
<svg xmlns="http://www.w3.org/2000/svg">
  <metadata>Created by iconfont</metadata>
  <defs>
  <font id="fd" horiz-adv-x="1024">
    <font-face
      font-family="fd"
      font-weight="400"
      font-stretch="normal"
      units-per-em="1024"
      ascent="896"
      descent="-128"
    />
      <missing-glyph />
      
      <glyph glyph-name="redo" unicode="&#59026;" d="M174.984848 653.969665c71.802326 71.846328 167.335123 111.441115 268.944312 111.441115 101.564163 0 197.095937-39.550785 268.944312-111.441115 71.843258-71.866794 111.440092-167.357636 111.440092-268.944312l0-57.860802 96.057753 96.03524c8.695033 8.719592 22.897499 8.719592 31.640628 0 8.696056-8.719592 8.696056-22.922059 0-31.641651L817.757241 257.327996c-4.41352-4.41352-10.136871-6.5553-15.861246-6.5553-5.727445 0-11.450796 2.183735-15.867386 6.5553L651.776975 391.55814c-8.696056 8.719592-8.696056 22.922059 0 31.641651 8.740058 8.719592 22.943548 8.719592 31.639604 0l96.05673-96.03524 0 57.860802c0 185.080276-150.552901 335.6342-335.632153 335.6342S108.207979 570.105628 108.207979 385.025353c0-185.078229 150.553924-335.633177 335.633177-335.633177 12.366655 0 22.375613-10.051937 22.375613-22.375613s-10.008958-22.37459-22.375613-22.37459c-101.607142 0-197.139939 39.550785-268.988314 111.440092C103.050516 187.92839300000003 63.456752 283.462213 63.456752 385.025353c0 101.585653 39.550785 197.140962 111.396089 268.944312L174.984848 653.969665z"  horiz-adv-x="1024" />
      
      <glyph glyph-name="undo" unicode="&#59051;" d="M848.640622 655.119861C776.646937 727.1135449999999 680.915619 766.789173 579.143725 766.789173c-101.81692 0-197.546192-39.631626-269.496897-111.669312-71.993684-71.995731-111.669312-167.725002-111.669312-269.498944l0-57.981553-96.211249 96.255251c-8.758478 8.717546-22.99062 8.717546-31.705096 0-8.758478-8.758478-8.758478-22.988574 0-31.705096l134.528949-134.528949c4.379751-4.421706 10.115382-6.568602 15.85306-6.568602 5.735631 0 11.473309 2.189875 15.852036 6.568602l134.528949 134.528949c8.759501 8.716522 8.759501 22.947641 0 31.705096-8.714476 8.717546-22.946618 8.717546-31.705096 0l-96.211249-96.255251 0 57.981553c0 185.460945 150.863986 336.324932 336.322885 336.324932 185.502901 0 336.324932-150.863986 336.324932-336.324932 0-185.459922-150.822031-336.322885-336.324932-336.322885-12.349259 0-22.420639-10.073426-22.420639-22.422685s10.07138-22.419616 22.420639-22.419616c101.773941 0 197.546192 39.632649 269.49485 111.670336 71.993684 71.993684 111.673405 167.721933 111.673405 269.49485 0 101.773941-39.632649 197.548238-111.673405 269.498944L848.640622 655.119861z"  horiz-adv-x="1024" />
      
      <glyph glyph-name="map-link" unicode="&#59905;" d="M639.999191 2.402406000000042c-0.999994 54.699654-36.39977 101.099361-85.39946 118.399252-6.39996 2.199986-10.599933 8.299948-10.599933 14.999905V632.198427c0 6.699958 4.199973 12.799919 10.599933 14.999905 49.09969 17.299891 84.399467 63.599598 85.39946 118.399252C641.299183 836.097138 583.399549 895.496763 512.899994 895.99676 441.800444 896.496757 384.000809 838.99712 384.000809 767.997569c0-55.699648 35.599775-103.099349 85.299461-120.699238 6.39996-2.299985 10.699932-8.299948 10.699932-15.099904v-496.396864c0-6.799957-4.299973-12.799919-10.699932-15.099904-49.699686-17.599889-85.299461-64.999589-85.299461-120.699238 0-70.999551 57.799635-128.499188 128.899185-127.999191 70.499555 0.499997 128.399189 59.899622 127.099197 130.399176zM448.000404 767.997569c0 35.299777 28.699819 63.999596 63.999596 63.999595s63.999596-28.699819 63.999596-63.999595-28.699819-63.999596-63.999596-63.999596-63.999596 28.699819-63.999596 63.999596z m0-767.995148c0 35.299777 28.699819 63.999596 63.999596 63.999596s63.999596-28.699819 63.999596-63.999596-28.699819-63.999596-63.999596-63.999595-63.999596 28.699819-63.999596 63.999595z"  horiz-adv-x="1024" />
      
      <glyph glyph-name="line" unicode="&#59906;" d="M332.67542927 23.65609328000005c37.97163415 39.38584771 45.74980874 97.22718241 23.33452377 144.10836201-2.96984848 6.08111832-1.6263456 13.36431816 3.11126984 18.1019336L710.12902906 536.87419507c4.73761543 4.73761543 12.02081528 6.08111832 18.1019336 3.11126983 46.95189027-22.48599564 104.65180362-14.70782105 144.10836201 23.33452378C923.10959156 612.25177794 924.17025173 695.19540337 874.67277704 745.39998484 824.75103829 796.02883037 743.22162642 796.24096241 693.01704496 746.03638094c-39.38584771-39.38584771-47.72970773-98.07571055-25.03158006-145.66399692 2.8991378-6.151829 1.69705627-13.43502884-3.11126983-18.24335496l-351.00780618-351.00780618c-4.80832611-4.80832611-12.09152596-6.01040764-18.24335496-3.11126984-47.58828637 22.69812768-106.27814921 14.35426766-145.66399692-25.03158005-50.20458146-50.20458146-49.99244943-131.73399334 0.6363961-181.65573209 50.20458146-49.49747468 133.1482069-48.43681451 182.07999616 2.33345238zM738.27187895 700.78154695c24.96086938 24.96086938 65.54879862 24.96086938 90.509668 0s24.96086938-65.54879862 0-90.509668-65.54879862-24.96086938-90.509668 0-24.96086938 65.54879862 0 90.509668z m-543.05800795-543.05800796c24.96086938 24.96086938 65.54879862 24.96086938 90.50966799 0s24.96086938-65.54879862 0-90.50966799-65.54879862-24.96086938-90.50966799 0-24.96086938 65.54879862 0 90.50966799z"  horiz-adv-x="1024" />
      
      <glyph glyph-name="align-right" unicode="&#59381;" d="M904 738H408c-4.4 0-8-3.6-8-8v-56c0-4.4 3.6-8 8-8h496c4.4 0 8 3.6 8 8v56c0 4.4-3.6 8-8 8zM904 314H408c-4.4 0-8-3.6-8-8v-56c0-4.4 3.6-8 8-8h496c4.4 0 8 3.6 8 8v56c0 4.4-3.6 8-8 8zM904 102H120c-4.4 0-8-3.6-8-8v-56c0-4.4 3.6-8 8-8h784c4.4 0 8 3.6 8 8v56c0 4.4-3.6 8-8 8zM904 526H120c-4.4 0-8-3.6-8-8v-56c0-4.4 3.6-8 8-8h784c4.4 0 8 3.6 8 8v56c0 4.4-3.6 8-8 8z"  horiz-adv-x="1024" />
      
      <glyph glyph-name="align-center1" unicode="&#59382;" d="M264 666h496c4.4 0 8 3.6 8 8v56c0 4.4-3.6 8-8 8H264c-4.4 0-8-3.6-8-8v-56c0-4.4 3.6-8 8-8zM760 242c4.4 0 8 3.6 8 8v56c0 4.4-3.6 8-8 8H264c-4.4 0-8-3.6-8-8v-56c0-4.4 3.6-8 8-8h496zM904 102H120c-4.4 0-8-3.6-8-8v-56c0-4.4 3.6-8 8-8h784c4.4 0 8 3.6 8 8v56c0 4.4-3.6 8-8 8zM904 526H120c-4.4 0-8-3.6-8-8v-56c0-4.4 3.6-8 8-8h784c4.4 0 8 3.6 8 8v56c0 4.4-3.6 8-8 8z"  horiz-adv-x="1024" />
      
      <glyph glyph-name="align-left" unicode="&#59383;" d="M120 666h496c4.4 0 8 3.6 8 8v56c0 4.4-3.6 8-8 8H120c-4.4 0-8-3.6-8-8v-56c0-4.4 3.6-8 8-8zM120 242h496c4.4 0 8 3.6 8 8v56c0 4.4-3.6 8-8 8H120c-4.4 0-8-3.6-8-8v-56c0-4.4 3.6-8 8-8zM904 102H120c-4.4 0-8-3.6-8-8v-56c0-4.4 3.6-8 8-8h784c4.4 0 8 3.6 8 8v56c0 4.4-3.6 8-8 8zM904 526H120c-4.4 0-8-3.6-8-8v-56c0-4.4 3.6-8 8-8h784c4.4 0 8 3.6 8 8v56c0 4.4-3.6 8-8 8z"  horiz-adv-x="1024" />
      
      <glyph glyph-name="align-mid" unicode="&#58884;" d="M640 640c0 25.6-17.066667 42.666667-42.666667 42.666667s-42.666667-17.066667-42.666666-42.666667v-512c0-25.6 17.066667-42.666667 42.666666-42.666667s42.666667 17.066667 42.666667 42.666667V640zM725.333333 768v-768c0-25.6 17.066667-42.666667 42.666667-42.666667s42.666667 17.066667 42.666667 42.666667V768c0 25.6-17.066667 42.666667-42.666667 42.666667s-42.666667-17.066667-42.666667-42.666667zM469.333333 0V768c0 25.6-17.066667 42.666667-42.666666 42.666667s-42.666667-17.066667-42.666667-42.666667v-768c0-25.6 17.066667-42.666667 42.666667-42.666667s42.666667 17.066667 42.666666 42.666667zM298.666667 128V640c0 25.6-17.066667 42.666667-42.666667 42.666667s-42.666667-17.066667-42.666667-42.666667v-512c0-25.6 17.066667-42.666667 42.666667-42.666667s42.666667 17.066667 42.666667 42.666667z"  horiz-adv-x="1024" />
      
      <glyph glyph-name="align-top" unicode="&#58885;" d="M554.666667 768v-597.333333c0-25.6 17.066667-42.666667 42.666666-42.666667s42.666667 17.066667 42.666667 42.666667V768c0 25.6-17.066667 42.666667-42.666667 42.666667s-42.666667-17.066667-42.666666-42.666667zM725.333333 768v-768c0-25.6 17.066667-42.666667 42.666667-42.666667s42.666667 17.066667 42.666667 42.666667V768c0 25.6-17.066667 42.666667-42.666667 42.666667s-42.666667-17.066667-42.666667-42.666667zM469.333333 0V768c0 25.6-17.066667 42.666667-42.666666 42.666667s-42.666667-17.066667-42.666667-42.666667v-768c0-25.6 17.066667-42.666667 42.666667-42.666667s42.666667 17.066667 42.666666 42.666667zM298.666667 170.666667V768c0 25.6-17.066667 42.666667-42.666667 42.666667s-42.666667-17.066667-42.666667-42.666667v-597.333333c0-25.6 17.066667-42.666667 42.666667-42.666667s42.666667 17.066667 42.666667 42.666667z"  horiz-adv-x="1024" />
      
      <glyph glyph-name="align-bottom" unicode="&#60295;" d="M469.333333 0l0 597.333333c0 25.6-17.066667 42.666667-42.666666 42.666667s-42.666667-17.066667-42.666667-42.666667L384 0c0-25.6 17.066667-42.666667 42.666667-42.666667s42.666667 17.066667 42.666666 42.666667zM298.666667 0l0 768c0 25.6-17.066667 42.666667-42.666667 42.666667s-42.666667-17.066667-42.666667-42.66666699L213.333333-1.0000007932831068e-8c0-25.6 17.066667-42.666667 42.666667-42.66666699s42.666667 17.066667 42.666667 42.666667zM554.666667 768L554.666667 0c0-25.6 17.066667-42.666667 42.666666-42.666667s42.666667 17.066667 42.666667 42.666667l0 768c0 25.6-17.066667 42.666667-42.666667 42.666667s-42.666667-17.066667-42.666666-42.666667zM725.333333 597.333333L725.333333 0c0-25.6 17.066667-42.666667 42.666667-42.666667s42.666667 17.066667 42.666667 42.66666699l0 597.33333301c0 25.6-17.066667 42.666667-42.666667 42.666667s-42.666667-17.066667-42.666667-42.666667z"  horiz-adv-x="1024" />
      
      <glyph glyph-name="icon_start" unicode="&#58880;" d="M512 896C229.234286 896 0 666.765714 0 384s229.234286-512 512-512 512 229.234286 512 512S794.765714 896 512 896z m0-914.285714C289.828571-18.285713999999984 109.714286 161.828571 109.714286 384S289.828571 786.285714 512 786.285714s402.285714-180.114286 402.285714-402.285714-180.114286-402.285714-402.285714-402.285714zM684.868571 426.057143L456.834286 596.845714C424.468571 615.542857 384 592.182857 384 554.8v-341.6c0-37.382857 40.468571-60.742857 72.834286-42.057143L684.868571 341.942857c32.365714 18.697143 32.365714 65.417143 0 84.114286z"  horiz-adv-x="1024" />
      
      <glyph glyph-name="tingzhi" unicode="&#59102;" d="M512 896c282.752 0 512-229.248 512-512s-229.248-512-512-512S0 101.248 0 384 229.248 896 512 896z m0-85.333333C276.352 810.666667 85.333333 619.648 85.333333 384s191.018667-426.666667 426.666667-426.666667 426.666667 191.018667 426.666667 426.666667S747.648 810.666667 512 810.666667z m128-256a42.666667 42.666667 0 0 0 42.666667-42.666667v-256a42.666667 42.666667 0 0 0-42.666667-42.666667H384a42.666667 42.666667 0 0 0-42.666667 42.666667V512a42.666667 42.666667 0 0 0 42.666667 42.666667h256z"  horiz-adv-x="1024" />
      
      <glyph glyph-name="arrow-right" unicode="&#59203;" d="M593.450667 383.872L360.064 617.386667l45.290667 45.226666 278.613333-278.762666L405.333333 105.386667l-45.226666 45.269333z"  horiz-adv-x="1024" />
      
      <glyph glyph-name="arrow-down" unicode="&#60294;" d="M511.872 302.54933300000005L745.386667 535.9359999999999l45.226666-45.290667-278.762666-278.613333L233.386667 490.666667l45.269333 45.226666z"  horiz-adv-x="1024" />
      
      <glyph glyph-name="align-middle" unicode="&#60292;" d="M106.744242 384a31.030303 31.030303 0 0 0 31.030303 31.030303l93.09091 0a31.030303 31.030303 0 1 0 0-62.060606l-93.09091 0a31.030303 31.030303 0 0 0-31.030303 31.030303zM758.38060601 384a31.030303 31.030303 0 0 0 31.03030299 31.03030299l93.090909 0a31.030303 31.030303 0 0 0 0-62.06060598l-93.090909 0a31.030303 31.030303 0 0 0-31.03030299 31.03030299zM417.04727301 384a31.030303 31.030303 0 0 0 31.03030299 31.03030299l124.121212 1e-8a31.030303 31.030303 0 0 0 0-62.060606l-124.121212 1e-8a31.030303 31.030303 0 0 0-31.03030299 31.03030299zM261.895758 104.72727299999997a62.060606 62.060606 0 0 0-62.06060599 62.060606l0 434.424242a62.060606 62.060606 0 0 0 62.06060599 62.060606l155.151515 0a62.060606 62.060606 0 0 0 62.060606-62.060606l0-434.424242a62.060606 62.060606 0 0 0-62.060606-62.060606l-155.151515 0z m0 496.484848l0-434.424242 155.151515 0 0 434.424242-155.151515 0zM603.229091 11.636363999999958a62.060606 62.060606 0 0 0-62.060606 62.06060599l0 620.60606002a62.060606 62.060606 0 0 0 62.060606 62.06060599l155.151515 0a62.060606 62.060606 0 0 0 62.060606-62.060606l0-620.60606a62.060606 62.060606 0 0 0-62.060606-62.060606l-155.151515 0z m0 682.666666l0-620.60606 155.151515 0 0 620.60606-155.151515 0z"  horiz-adv-x="1024" />
      
      <glyph glyph-name="delete" unicode="&#59081;" d="M482.333842 578.515159c0 17.637706 14.435781 31.840172 31.807427 31.840172l0 0c17.3389 0 31.775704-14.450107 31.775704-31.840172L545.916972 95.648686c0-17.637706-14.435781-31.809473-31.775704-31.809473l0 0c-17.619286 0-31.807427 14.418384-31.807427 31.809473L482.333842 578.515159zM927.372777 700.400137l0 5.507434c-1.390673 16.338107-14.989389 29.086455-31.682583 29.086455l0 0L724.730521 734.994026l0 40.164768c0 31.098275-27.882024 55.573713-63.612807 55.573713l-294.231231 0c-35.700083 0-63.611783-24.475438-63.611783-55.573713l0-39.916105L127.181099 735.242689c-17.618263 0-31.806403-14.202467-31.806403-31.840172s14.187117-31.840172 31.806403-31.840172l67.01223 0 0-671.403476c0-34.284851 28.622898-62.195527 63.582107-62.195527l512.947582 0c34.958186 0 63.582107 27.910677 63.582107 62.195527l0 671.155836 61.385069 0C912.383388 671.312658 925.982104 684.06203 927.372777 700.400137L927.372777 700.400137zM332.390831 578.515159c0 17.637706 14.187117 31.840172 31.806403 31.840172l0 0c17.618263 0 31.774681-14.450107 31.774681-31.840172L395.971915 95.648686c0-17.637706-14.404058-31.809473-31.774681-31.809473l0 0c-17.619286 0-31.806403 14.418384-31.806403 31.809473L332.390831 578.515159zM632.030236 578.515159c0 17.637706 14.434757 31.840172 31.806403 31.840172l0 0c17.588587 0 31.775704-14.450107 31.775704-31.840172L695.612343 95.648686c0-17.637706-14.433734-31.809473-31.775704-31.809473l0 0c-17.371646 0-31.806403 14.418384-31.806403 31.809473L632.030236 578.515159zM366.88546 766.834198l294.231231 0 0-31.840172-294.231231 0L366.88546 766.834198zM736.969263 1.39502200000004c0 0-411.4397-1.485841-446.39891-1.485841-34.988886 0-33.010835 35.987632-33.010835 35.987632L257.559519 640.710686c0 36.729529 31.064506 30.601972 31.064506 30.601972l444.420859 0c0 0 37.432541 2.227738 37.432541-30.601972 0-32.800034 0.494257-577.12116 0.494257-607.970772C770.970658 2.1072430000000395 736.969263 1.39502200000004 736.969263 1.39502200000004L736.969263 1.39502200000004z"  horiz-adv-x="1024" />
      
      <glyph glyph-name="snapto" unicode="&#59450;" d="M512 832C282 831 128 676.8 128 432.4c0-97.6 4.2-153.6 29-255.6 31.8-131.4 78.2-226.6 78.2-226.6l1.2-2.6c3.8-6.8 11-11.6 19.6-11.6 2.8 0 5.4 0.4 8 1.4l3.4 1.6 100.6 41.4 3.6 1.6c6.6 3.8 11 10.6 11 18.6-0.4 2.8-0.8 5.6-2 8-0.2 0.2-0.2 0.4-0.4 0.8-14 32-54.4 118.4-74 202.2-19.8 83.8-27 124.8-27 215.4C279.2 569.2 384 672 512 672c128 0 232.8-102.8 232.8-245 0-90.6-7.4-131.6-27.2-215.4-19.8-83.8-60-170.4-74-202.2-0.2-0.4-0.2-0.6-0.4-0.8-1.2-2.4-1.6-5.2-2-8 0-8 4.4-14.8 11-18.6l3.6-1.6 100.6-41.4 3.4-1.6c2.6-1 5.2-1.4 8-1.4 8.6 0 15.8 4.8 19.6 11.6l1.2 2.6c0 0 46.4 95.2 78.2 226.6 24.8 102 29 158 29 255.6C896 676.8 742 831 512 832zM346 7.600000000000023c0.2-0.4 0.4-1 0.6-1.4l-85.6-35.2c-10.8 23.6-45.4 102-71.4 208.8l85 24.6C293 126 328.8 46 346 7.600000000000023zM762.8-29l-85.6 35.2c0.2 0.4 0.4 0.8 0.6 1.4 17.2 38.4 52.8 118.4 71.2 196.8l85-24.6C808.2 73 773.6-5.399999999999977 762.8-29z"  horiz-adv-x="1024" />
      
      <glyph glyph-name="select" unicode="&#58952;" d="M939.52 128L768-43.51999999999998 596.48 128 426.666667-41.81333299999994l-341.333334 853.333333L938.666667 469.333333l-170.666667-169.813333z"  horiz-adv-x="1024" />
      
      <glyph glyph-name="resize-" unicode="&#59160;" d="M410.816 222.485333L230.997333 42.666667H384v-85.333334H85.333333V256h85.333334v-153.002667l179.818666 179.84 60.330667-60.373333z m-53.632 256L170.666667 665.002667V512H85.333333V810.666667h298.666667v-85.333334h-153.002667l186.517334-186.517333-60.330667-60.330667z m234.666667 45.696L793.002667 725.333333H640V810.666667h298.666667v-298.666667h-85.333334v153.002667l-201.152-201.173334-60.330666 60.373334z m67.029333-226.709333L853.333333 102.997333V256h85.333334v-298.666667H640v85.333334h153.002667l-194.474667 194.453333 60.352 60.352z"  horiz-adv-x="1024" />
      
      <glyph glyph-name="samesize" unicode="&#59564;" d="M416 336H224a48 48 0 1 1 0-96h76.112L61.488 1.3759999999999764l0.048-0.048A47.84 47.84 0 0 1 48-32a48 48 0 0 1 48-48c12.96 0 24.688 5.2 33.312 13.568l0.048-0.064L368 172.11199999999997V96a48 48 0 1 1 96 0V288a48 48 0 0 1-48 48z m192 96h192a48 48 0 1 1 0 96h-76.112L962.512 766.624l-0.048 0.048C970.816 775.312 976 787.04 976 800a48 48 0 0 1-48 48c-12.976 0-24.688-5.2-33.328-13.552l-0.048 0.048L656 595.8720000000001V672a48 48 0 1 1-96 0v-192a48 48 0 0 1 48-48z m354.512-430.624L723.888 240H800a48 48 0 1 1 0 96H608a48 48 0 0 1-48-48v-192a48 48 0 1 1 96 0v76.112l238.624-238.624 0.048 0.048c8.64-8.352 20.352-13.536 33.328-13.536a48 48 0 0 1 48 48c0 12.976-5.2 24.688-13.568 33.328l0.08 0.048zM416 720a48 48 0 0 1-48-48v-76.112L129.376 834.512l-0.048-0.064A47.824 47.824 0 0 1 96 848a48 48 0 0 1-48-48c0-12.96 5.2-24.688 13.552-33.312l-0.064-0.064L300.112 528H224a48 48 0 1 1 0-96h192a48 48 0 0 1 48 48V672a48 48 0 0 1-48 48z"  horiz-adv-x="1024" />
      
      <glyph glyph-name="align-center" unicode="&#58946;" d="M512 789.255758a31.030303 31.030303 0 0 0 31.030303-31.030303v-93.09091a31.030303 31.030303 0 1 0-62.060606 0v93.09091a31.030303 31.030303 0 0 0 31.030303 31.030303zM512 137.61939400000006a31.030303 31.030303 0 0 0 31.030303-31.030303v-93.090909a31.030303 31.030303 0 0 0-62.060606 0v93.090909a31.030303 31.030303 0 0 0 31.030303 31.030303zM512 478.952727a31.030303 31.030303 0 0 0 31.030303-31.030303v-124.121212a31.030303 31.030303 0 0 0-62.060606 0v124.121212a31.030303 31.030303 0 0 0 31.030303 31.030303zM232.727273 634.104242a62.060606 62.060606 0 0 0 62.060606 62.060606h434.424242a62.060606 62.060606 0 0 0 62.060606-62.060606v-155.151515a62.060606 62.060606 0 0 0-62.060606-62.060606h-434.424242a62.060606 62.060606 0 0 0-62.060606 62.060606v155.151515z m496.484848 0h-434.424242v-155.151515h434.424242v155.151515zM139.636364 292.77090899999996a62.060606 62.060606 0 0 0 62.060606 62.060606h620.60606a62.060606 62.060606 0 0 0 62.060606-62.060606v-155.151515a62.060606 62.060606 0 0 0-62.060606-62.060606h-620.60606a62.060606 62.060606 0 0 0-62.060606 62.060606v155.151515z m682.666666 0h-620.60606v-155.151515h620.60606v155.151515z"  horiz-adv-x="1024" />
      
      <glyph glyph-name="share-line" unicode="&#59042;" d="M877.714286 54.85714299999995c0-23.661714-11.483429-44.544-29.001143-57.929143A72.521143 72.521143 0 0 0 804.571429-18.285713999999984c-40.338286 0-73.142857 32.804571-73.142858 73.142857 0 3.145143 0.548571 6.180571 0.914286 9.252571A73.179429 73.179429 0 0 0 804.571429 128c36.754286 0 66.962286-27.355429 72.082285-62.72 0.475429-3.437714 1.060571-6.838857 1.060572-10.422857M219.428571 310.85714299999995c-40.338286 0-73.142857 32.804571-73.142857 73.142857s32.804571 73.142857 73.142857 73.142857a72.704 72.704 0 0 0 69.888-52.772571c1.901714-6.509714 3.254857-13.238857 3.254858-20.370286 0-7.131429-1.353143-13.860571-3.254858-20.370286A72.740571 72.740571 0 0 0 219.428571 310.85714299999995M731.428571 713.142857c0 40.338286 32.804571 73.142857 73.142858 73.142857 16.64 0 31.817143-5.814857 44.141714-15.213714 17.517714-13.385143 29.001143-34.267429 29.001143-57.929143 0-3.584-0.585143-6.985143-1.060572-10.422857A73.033143 73.033143 0 0 0 804.571429 640a73.179429 73.179429 0 0 0-72.228572 63.890286C731.977143 706.962286 731.428571 709.997714 731.428571 713.142857m73.142858-512a145.078857 145.078857 0 0 1-97.499429-37.961143l-343.625143 198.4A141.531429 141.531429 0 0 1 365.714286 384c0 7.68-1.097143 15.067429-2.267429 22.418286l343.625143 198.4A145.078857 145.078857 0 0 1 804.571429 566.857143a146.285714 146.285714 0 0 1 142.994285 176.786286 145.371429 145.371429 0 0 1-33.243428 65.316571A145.334857 145.334857 0 0 1 804.571429 859.428571a146.285714 146.285714 0 0 1-146.285715-146.285714c0-16.603429 3.364571-32.256 8.448-47.140571l-332.690285-192.109715C307.236571 507.977143 266.130286 530.285714 219.428571 530.285714a146.285714 146.285714 0 0 1 0-292.571428c46.701714 0 87.808 22.308571 114.614858 56.393143l332.690285-192.109715A145.042286 145.042286 0 0 1 658.285714 54.85714299999995a146.285714 146.285714 0 0 1 146.285715-146.285714 145.334857 145.334857 0 0 1 109.750857 50.468571A145.371429 145.371429 0 0 1 950.857143 54.85714299999995a146.285714 146.285714 0 0 1-146.285714 146.285714"  horiz-adv-x="1024" />
      
    </font>
</defs>
</svg>
